<svg xmlns="http://www.w3.org/2000/svg" width="512" height="512" style="shape-rendering:geometricPrecision;text-rendering:geometricPrecision;image-rendering:optimizeQuality;fill-rule:evenodd;clip-rule:evenodd"><path fill="#63AB45" d="M298.5 11.5c29.245-1.91 45.578 11.59 49 40.5-.857 20.19-10.857 33.523-30 40-7.034 1.448-14.034 1.948-21 1.5 3.078 6.757 3.745 13.757 2 21a801.235 801.235 0 0 0 31 50.5 1556.271 1556.271 0 0 0 47 24c3.858 2.358 6.858 5.525 9 9.5 7.07 2.773 12.903 7.107 17.5 13 1.833 8.833-1.667 12.333-10.5 10.5a17.842 17.842 0 0 1-5.5-4.5c-6.661 12.415-16.828 17.415-30.5 15a3281.095 3281.095 0 0 1 26.5 72c.481 1.978 1.647 3.311 3.5 4 52.433-10.032 90.6 8.635 114.5 56 15.854 46.43 5.021 85.263-32.5 116.5-37.421 24.266-75.088 24.6-113 1-36.329-28.654-48.496-65.488-36.5-110.5 9.198-25.533 25.865-44.533 50-57a361.779 361.779 0 0 0-12-35l-84 108c-.982 1.259-1.315 2.592-1 4l12 12c4.667 6.667 4.667 13.333 0 20-2.626 2.731-5.793 4.564-9.5 5.5a638.653 638.653 0 0 1-57 1c-8.899-3.23-13.565-9.563-14-19a1172.773 1172.773 0 0 0 11.5-98.5l-22-24a1724.742 1724.742 0 0 0-29.5 40c33.79 31.495 42.956 69.161 27.5 113-21.243 43.543-56.076 63.043-104.5 58.5-44.713-9.046-71.88-35.879-81.5-80.5-5.234-43.689 10.599-77.189 47.5-100.5 32.77-16.828 65.437-16.661 98 .5a3126.08 3126.08 0 0 0 32-42.5 291.403 291.403 0 0 1-35.5-46.5c-6.091-10.51-7.091-21.51-3-33 14.545-40.943 37.045-76.776 67.5-107.5 10.004-9.339 21.338-16.672 34-22 7.721-2.31 15.221-1.81 22.5 1.5-6.111-19.12-1.944-35.62 12.5-49.5 5.708-3.69 11.708-6.523 18-8.5Zm5 15c22.336 2.334 30.502 14.334 24.5 36-9.553 14.401-22.053 17.568-37.5 9.5-10.132-10.383-11.632-21.883-4.5-34.5 4.578-5.862 10.411-9.528 17.5-11Zm-51 55a27.626 27.626 0 0 1 10 2.5A108.754 108.754 0 0 1 282 99.5c2.7 4.561 3.2 9.394 1.5 14.5a36.556 36.556 0 0 0 1.5 9.5 919.852 919.852 0 0 0 34.5 54.5l48 24c7.283 6.694 6.283 11.527-3 14.5a1200.66 1200.66 0 0 1-67-28.5 1529.051 1529.051 0 0 1-32.5-55.5c-4.201-7.842-9.534-8.842-16-3a12.494 12.494 0 0 0 0 7 355.512 355.512 0 0 0 12.5 22 3100.235 3100.235 0 0 0-41 52.5c-21.37 3.709-42.37 2.209-63-4.5 14.272-42.054 37.272-78.554 69-109.5 7.968-6.478 16.635-11.645 26-15.5Zm17 92c5.6 9.689 11.6 19.189 18 28.5a1511.367 1511.367 0 0 0 49 20.5 489.44 489.44 0 0 0 12 33 1058.764 1058.764 0 0 1-92 0l-22-36a67123.503 67123.503 0 0 0 35-46Zm-107 51c19.23 4.316 38.563 4.983 58 2a1695.81 1695.81 0 0 1 40.5 67c2.183 5.495 2.849 11.161 2 17a2242.81 2242.81 0 0 1-16 64c-7.245 1.794-14.745 2.794-22.5 3a1000.302 1000.302 0 0 0 6.5-71 1038.567 1038.567 0 0 1-62-71 101.902 101.902 0 0 1-6.5-11Zm104 49a965.392 965.392 0 0 1 76-.5A17952.12 17952.12 0 0 0 264 373.5a1582.724 1582.724 0 0 1 13-54c3.871-17.15.371-32.484-10.5-46Zm145 47c50.718 4.051 78.718 31.385 84 82-5.156 50.156-32.822 77.489-83 82-39.706-2.083-66.206-21.75-79.5-59-8.892-42.2 5.108-74.2 42-96a2653.012 2653.012 0 0 1 29 77c4.745 5.243 9.412 5.243 14 0 .738-3.761.405-7.428-1-11l-26.5-71c6.946-2.152 13.946-3.485 21-4Zm-323 1c18.643-2.206 35.976 1.461 52 11a4588.56 4588.56 0 0 1-48.5 65c-3.024 9.973.476 13.806 10.5 11.5l51.5-67.5c21.258 19.219 30.258 43.219 27 72-7.612 39.946-31.446 63.446-71.5 70.5-44.646 1.775-74.146-18.392-88.5-60.5-7.581-38.278 4.585-68.445 36.5-90.5 9.833-5.551 20.167-9.384 31-11.5Zm158 70a4.934 4.934 0 0 1 3 .5 325.946 325.946 0 0 0 22 21 451.17 451.17 0 0 1-50 1l-1.5-1.5a93.046 93.046 0 0 1 2.5-19c8.157-.667 16.157-1.333 24-2Z" style="opacity:.926"/></svg>