<svg xmlns="http://www.w3.org/2000/svg" width="128" height="128" style="shape-rendering:geometricPrecision;text-rendering:geometricPrecision;image-rendering:optimizeQuality;fill-rule:evenodd;clip-rule:evenodd"><path fill="#63AB45" d="M61.5 4.5h4c.256 2.293-.077 4.46-1 6.5l5 2.5c1.375-3.047 3.708-4.38 7-4-.433 2.785-1.766 5.119-4 7 1.333 3.667 1.333 7.333 0 11a31.653 31.653 0 0 1 4 5.5c-.508 1.169-1.342 2.002-2.5 2.5a31.857 31.857 0 0 1-4.5-5l-5 2.5c.923 2.04 1.256 4.208 1 6.5h-4c-.256-2.292.077-4.46 1-6.5l-5-2.5c-1.375 3.047-3.708 4.38-7 4 .433-2.785 1.766-5.119 4-7-1.333-3.667-1.333-7.333 0-11-2.234-1.881-3.567-4.215-4-7 3.292-.38 5.625.953 7 4l5-2.5c-.923-2.04-1.256-4.207-1-6.5Zm-1 12c4.906-1.194 7.906.639 9 5.5-1.984 5.747-5.484 6.913-10.5 3.5-1.942-3.36-1.442-6.36 1.5-9Z" style="opacity:.719"/><path fill="#63AB45" d="M46.5 19.5c1.7-.16 3.366.006 5 .5 1.333 1.333 1.333 2.667 0 4-1.634.494-3.3.66-5 .5v-5Z" style="opacity:.617"/><path fill="#63AB45" d="M75.5 19.5h5v5c-4.92 1.085-6.587-.582-5-5Z" style="opacity:.614"/><path fill="#63AB45" d="M32.5 39.5c1.644-.214 3.144.12 4.5 1a307.463 307.463 0 0 0 14 19c.684 1.284.517 2.45-.5 3.5l-6 1 5.5 7.5 11-12a60.94 60.94 0 0 0 .5-11h4a60.94 60.94 0 0 0 .5 11c3.298 4.3 6.965 8.3 11 12l5.5-7.5-6-1c-1.017-1.05-1.184-2.216-.5-3.5A651.797 651.797 0 0 0 90.5 40c1.444-.78 2.777-.614 4 .5a353.715 353.715 0 0 0 13.5 18c.494 1.634.66 3.3.5 5a9.864 9.864 0 0 0-6 1 71.822 71.822 0 0 1 10 14.5 3.944 3.944 0 0 1-1 2l-7 1a149.33 149.33 0 0 1 12 17 3.943 3.943 0 0 1-1 2l-8 1c1.574 1.826 2.407 3.993 2.5 6.5l6 6c.497-2.31.663-4.643.5-7h4a98.432 98.432 0 0 1-.5 14c-1.049 1.017-2.216 1.184-3.5.5l-6.5-6.5a24.935 24.935 0 0 0-.5 7h-92a24.939 24.939 0 0 0-.5-7l-6.5 6.5c-1.284.684-2.45.517-3.5-.5a98.436 98.436 0 0 1-.5-14h4c-.163 2.357.003 4.69.5 7l6-6c.093-2.507.926-4.674 2.5-6.5l-8-1a3.942 3.942 0 0 1-1-2 149.456 149.456 0 0 1 12-17l-7-1a3.943 3.943 0 0 1-1-2 71.842 71.842 0 0 1 10-14.5c-2.75-.516-5.084-1.683-7-3.5a441.37 441.37 0 0 0 15-21.5Zm1 7c1.517.01 2.684.677 3.5 2l6.5 9a14.73 14.73 0 0 1-5 1.5 4.938 4.938 0 0 0-1 2.5 84.872 84.872 0 0 0 9 13c-6.197 6.713-13.197 13.88-21 21.5a16.25 16.25 0 0 1-8 0A378.413 378.413 0 0 0 29 81.5c.494-1.634.66-3.3.5-5a32.437 32.437 0 0 1-8-.5A107.842 107.842 0 0 0 32 62.5c.75-1.135.583-2.135-.5-3a32.412 32.412 0 0 0-6-1.5c2.8-3.775 5.466-7.608 8-11.5Zm58 0c.996-.086 1.83.248 2.5 1a183.839 183.839 0 0 0 7.5 10.5l-5 1c-.928.388-1.595 1.055-2 2a96.6 96.6 0 0 0 11 15 32.438 32.438 0 0 1-8 .5c-.16 1.7.007 3.366.5 5A378.118 378.118 0 0 0 109.5 96a16.25 16.25 0 0 1-8 0c-7.803-7.62-14.803-14.787-21-21.5a135.068 135.068 0 0 1 8.5-11c.667-1.333.667-2.667 0-4a99.82 99.82 0 0 1-5.5-2 3321.78 3321.78 0 0 0 8-11Zm-31 20c1.147 4.146 1.314 8.48.5 13-5.376 15.7-14.876 28.2-28.5 37.5a60.93 60.93 0 0 1-11 .5 60.94 60.94 0 0 1 .5-11 2183.948 2183.948 0 0 1 38.5-40Zm5 0a745.288 745.288 0 0 1 39.5 40c.499 3.652.665 7.318.5 11a60.93 60.93 0 0 1-11-.5c-17.986-12.131-27.653-28.965-29-50.5Zm-5 25c.993 8.484 1.326 17.151 1 26-7.008.166-14.008 0-21-.5 8.751-6.912 15.418-15.412 20-25.5Zm5 0c5.307 9.815 12.307 18.315 21 25.5-6.992.5-13.992.666-21 .5v-26Z" style="opacity:.763"/></svg>