<svg xmlns="http://www.w3.org/2000/svg" width="512" height="512" style="shape-rendering:geometricPrecision;text-rendering:geometricPrecision;image-rendering:optimizeQuality;fill-rule:evenodd;clip-rule:evenodd"><path fill="#63AB45" d="M-.5 494.5v-196c2.759-9.605 8.425-17.105 17-22.5a1135.31 1135.31 0 0 1 71-21.5c.166-7.341 0-14.674-.5-22-20.221-16.097-31.888-37.097-35-63-14.204-6.741-19.538-17.741-16-33a29.616 29.616 0 0 1 7-11 951.24 951.24 0 0 1 2-58c8.046-31.046 27.88-49.213 59.5-54.5 29-.667 58-.667 87 0 13.296 3.295 22.13 11.462 26.5 24.5 9.521 7.036 15.521 16.37 18 28l1 60c7.262 6.788 9.929 15.121 8 25-2.206 9.4-7.872 15.733-17 19-2.688 26.129-14.354 47.129-35 63a242.43 242.43 0 0 0-.5 22 2297.613 2297.613 0 0 1 64 18.5c6.624 2.043 11.791 5.876 15.5 11.5 1.131 6.038-1.369 9.371-7.5 10-17.722-7.574-36.055-13.574-55-18-5.349 49.398-18.182 96.732-38.5 142a313.842 313.842 0 0 1-23.5 41 602.338 602.338 0 0 0 17.5 28c.248 11.072-4.419 13.739-14 8-30.316-44.647-51.983-93.314-65-146a565.49 565.49 0 0 1-14.5-73 432.065 432.065 0 0 0-48 14.5c-3.262 2.592-5.762 5.759-7.5 9.5a9716.77 9716.77 0 0 0-2 194c-4.831 5.286-9.665 5.286-14.5 0Zm106-466c27.669-.167 55.335 0 83 .5 9.027 2.864 14.193 9.03 15.5 18.5 7.713 4.756 13.046 11.422 16 20l1 63a63.304 63.304 0 0 0 8 11c.652 3.094.318 6.094-1 9a116.53 116.53 0 0 1-14.5 7c-1.513 35.908-18.846 60.408-52 73.5-29.983 7.63-55.483.13-76.5-22.5-11.011-14.029-16.678-30.029-17-48a29.465 29.465 0 0 0-2.5-4.5 40.677 40.677 0 0 1-12.5-4.5c-4.301-8.101-2.135-13.601 6.5-16.5 8.103-.063 16.103-.73 24-2a152.054 152.054 0 0 0 8.5-22.5c.388-.928 1.055-1.595 2-2A371.435 371.435 0 0 0 184.5 95a78.842 78.842 0 0 0 15-7.5c3.01-5.128 2.01-9.294-3-12.5-2-.667-4-.667-6 0a182.843 182.843 0 0 1-48 13 1118.467 1118.467 0 0 1-59 5 6.975 6.975 0 0 0-3.5 2.5 853.347 853.347 0 0 1-7.5 22 43.116 43.116 0 0 1-13 1c-.167-14.67 0-29.337.5-44 5.356-25.189 20.523-40.522 45.5-46Zm-2 214c24.008 10.573 48.008 10.573 72 0a28.717 28.717 0 0 1 .5 13 984.88 984.88 0 0 0-36 22 635.703 635.703 0 0 0-35.5-21.5c-.967-4.401-1.3-8.901-1-13.5Zm-10 26a1023.76 1023.76 0 0 1 35 20.5 924.756 924.756 0 0 0-17 21.5l-20-13a229.39 229.39 0 0 1-5-27c2.652.09 4.986-.576 7-2Zm92 0c2.493 1.274 5.159 1.94 8 2a128.363 128.363 0 0 1-3.5 26 219.357 219.357 0 0 1-21 14 514.176 514.176 0 0 1-16.5-21 864.366 864.366 0 0 1 33-21Zm-46 32c7.504 5.485 10.837 12.818 10 22h-19c-.165-3.35.002-6.683.5-10a157.427 157.427 0 0 1 8.5-12Zm45 19c.639.597.972 1.43 1 2.5a474.868 474.868 0 0 1-19.5 66.5 481.812 481.812 0 0 1-7-53l6-6c3.291.473 6.458-.36 9.5-2.5a79.853 79.853 0 0 0 10-7.5Zm-89 2c.397-1.025 1.063-1.192 2-.5l12 8c2.324 1.374 4.657 1.707 7 1a64.603 64.603 0 0 0 6 7.5 1239.346 1239.346 0 0 0-7.5 49 199.36 199.36 0 0 1-9-26 1634.644 1634.644 0 0 0-10.5-39Zm43 17h4a2140.673 2140.673 0 0 0 11 77c-3.715 9.769-8.715 18.769-15 27a127.22 127.22 0 0 1-12-25.5c3.95-26.196 7.95-52.362 12-78.5Z" style="opacity:.939"/><path fill="#63AB45" d="M511.5 358.5v56c-1.777 2.889-4.444 4.222-8 4 .167 24.336 0 48.669-.5 73-1.465 6.153-5.298 8.32-11.5 6.5l-3.5-3.5c-.5-25.331-.667-50.664-.5-76h-20c.167 25.336 0 50.669-.5 76-3.42 4.253-7.587 5.087-12.5 2.5-1.393-1.171-2.227-2.671-2.5-4.5-.959-34.7-.625-69.367 1-104 1.279-5.225 3.612-9.891 7-14 9.409-7.62 18.909-15.12 28.5-22.5a75.109 75.109 0 0 0-15-6.5c-27.853 19.764-59.019 29.431-93.5 29-26.908.153-52.408-5.681-76.5-17.5a94.879 94.879 0 0 1-16.5-12.5 284.917 284.917 0 0 1-14.5 6.5c-1.211.893-1.211 1.726 0 2.5a312.759 312.759 0 0 1 28.5 23 38.577 38.577 0 0 1 6 13c.667 35 .667 70 0 105-3.42 4.253-7.587 5.087-12.5 2.5a14.444 14.444 0 0 1-2.5-5.5c-.5-24.331-.667-48.664-.5-73h-19c.167 24.669 0 49.336-.5 74-1.98 5.406-5.814 7.239-11.5 5.5l-3.5-3.5c-.5-25.331-.667-50.664-.5-76-4.183.654-7.016-1.012-8.5-5a702.15 702.15 0 0 1 0-53c3.287-15.121 12.454-24.454 27.5-28a3296.4 3296.4 0 0 1 25-88 118.14 118.14 0 0 1-9-31c-8.488-3.319-13.988-9.319-16.5-18a756.122 756.122 0 0 1 0-55c2.536-18.953 9.369-36.119 20.5-51.5-7.859-21.615-1.526-37.615 19-48 11.453-3.46 22.287-1.96 32.5 4.5 9.721-15.915 22.887-19.415 39.5-10.5 4.919 3.676 7.919 8.51 9 14.5 37.212 6.041 64.045 26.041 80.5 60 9.057 21.676 11.557 44.009 7.5 67-5.126 3.909-9.626 3.242-13.5-2 3.801-35.952-7.366-66.118-33.5-90.5-11.921-9.126-25.255-15.293-40-18.5a114.422 114.422 0 0 0-8 9.5c-8.138 6.604-17.138 8.104-27 4.5-6.892 21.613-21.559 30.779-44 27.5a34.218 34.218 0 0 1-10.5-4.5c-7.395 9.799-12.395 20.799-15 33a170.558 170.558 0 0 0-1.5 29c13.872.311 25.372-4.689 34.5-15a232.136 232.136 0 0 0 14.5-20.5 43.145 43.145 0 0 1 5-1.5 185.14 185.14 0 0 0 28 14.5 1970.303 1970.303 0 0 1 66 17c16.652 6.995 26.152 19.495 28.5 37.5 1.72 16.678-.78 32.678-7.5 48a12898.21 12898.21 0 0 1 24.5 87c13.718 4.552 22.884 13.552 27.5 27Zm-144-312c11.787-.052 15.287 5.282 10.5 16-6.38 4.524-11.713 3.524-16-3-1.429-5.8.404-10.133 5.5-13Zm-47 9c13.923-1.741 22.257 4.259 25 18-1.325 11.325-7.658 17.658-19 19-11.342-1.342-17.675-7.675-19-19 1.279-8.269 5.612-14.269 13-18Zm26 92a151.62 151.62 0 0 0 26 11.5 973.036 973.036 0 0 1 60 15c13.692 6.874 20.026 18.041 19 33.5-2.092 32.583-18.258 54.916-48.5 67-35.834 9.836-64.168-.497-85-31-6.942-12.765-10.608-26.431-11-41l-2.5-2.5c-4.822-.486-8.989-2.319-12.5-5.5-2.967-6.274-1.467-11.108 4.5-14.5 15.675-.922 28.842-7.089 39.5-18.5a175.509 175.509 0 0 0 10.5-14Zm-35 115a148.298 148.298 0 0 0 24.5 21 90.455 90.455 0 0 1 0 19c-.504 3.52-2.337 6.02-5.5 7.5a576.932 576.932 0 0 0-35.5 14.5 2110.518 2110.518 0 0 1 16.5-62Zm153 61a435.785 435.785 0 0 1-37-14.5 11.532 11.532 0 0 1-3.5-4.5 81.224 81.224 0 0 1 .5-22c8.541-5.201 16.207-11.534 23-19a1002.794 1002.794 0 0 1 17 60Zm-112-33c18.328 5.333 36.662 5.333 55 0-2.561 12.481.773 22.981 10 31.5a477.823 477.823 0 0 0 38 16c-23.307 13.995-48.641 20.828-76 20.5-27.094.479-52.094-6.355-75-20.5a354.701 354.701 0 0 0 39-17c7.709-8.67 10.709-18.837 9-30.5Zm-89 77a221.732 221.732 0 0 1 24.5 19c3.059 4.855 4.226 10.189 3.5 16h-28v-35Zm231 0c1.978 11.285 2.645 22.952 2 35h-29c-.43-6.205 1.07-11.872 4.5-17a771.193 771.193 0 0 0 22.5-18Z" style="opacity:.935"/><path fill="#63AB45" d="M102.5 136.5c4.388-.557 7.555 1.11 9.5 5 .667 5 .667 10 0 15-3.086 5.252-7.253 6.252-12.5 3a12.412 12.412 0 0 1-2.5-4 42.498 42.498 0 0 1 0-13c1.02-2.85 2.854-4.85 5.5-6ZM173.5 136.5c4.388-.557 7.555 1.11 9.5 5 .667 5 .667 10 0 15-3.086 5.252-7.253 6.252-12.5 3a12.403 12.403 0 0 1-2.5-4 42.479 42.479 0 0 1 0-13c1.021-2.85 2.854-4.85 5.5-6Z" style="opacity:.888"/><path fill="#63AB45" d="M122.5 180.5c4.039 1.858 7.705 4.358 11 7.5 5.186 2.226 10.186 1.893 15-1 4.231-6.429 9.398-7.596 15.5-3.5 2.891 6.397 1.391 11.564-4.5 15.5-12.972 8.623-25.972 8.623-39 0-8.592-7.658-7.925-13.825 2-18.5Z" style="opacity:.91"/><path fill="#63AB45" d="M343.5 180.5c7.127 1.287 10.127 5.62 9 13 .983 9.186-3.017 13.019-12 11.5-3.493-2.964-4.826-6.797-4-11.5-1.503-6.675.83-11.009 7-13ZM414.5 180.5c7.127 1.287 10.127 5.62 9 13 .983 9.186-3.017 13.019-12 11.5-3.493-2.964-4.826-6.797-4-11.5-1.503-6.675.83-11.009 7-13Z" style="opacity:.893"/><path fill="#63AB45" d="M358.5 225.5c5.789-.405 10.456 1.761 14 6.5 5.515 3.395 10.848 3.062 16-1 5.518-7.021 11.018-7.188 16.5-.5 1.064 5.378-.769 9.544-5.5 12.5-16.34 10.862-31.173 9.029-44.5-5.5-1.407-4.901-.24-8.901 3.5-12Z" style="opacity:.91"/><path fill="#63AB45" d="M49.5 340.5c4.562-.139 7.729 1.861 9.5 6 .667 48.667.667 97.333 0 146-1.98 5.406-5.814 7.239-11.5 5.5l-3.5-3.5a5550.223 5550.223 0 0 1 0-149c1.106-2.613 2.94-4.28 5.5-5Z" style="opacity:.93"/><path fill="#63AB45" d="M227.5 340.5c3.439.089 6.272 1.422 8.5 4 .667 50 .667 100 0 150-3.42 4.253-7.587 5.087-12.5 2.5a14.444 14.444 0 0 1-2.5-5.5c-.667-48-.667-96 0-144 1.018-3.515 3.185-5.848 6.5-7Z" style="opacity:.932"/></svg>