<svg xmlns="http://www.w3.org/2000/svg" width="512" height="512" style="shape-rendering:geometricPrecision;text-rendering:geometricPrecision;image-rendering:optimizeQuality;fill-rule:evenodd;clip-rule:evenodd"><path fill="#63AB45" d="M125.5 71.5c80.334-.167 160.667 0 241 .5 54.158 10.158 86.324 42.324 96.5 96.5.5 18.33.667 36.664.5 55 9.339-.166 18.673 0 28 .5 1.833.5 3 1.667 3.5 3.5.514 9.316-2.153 17.65-8 25-6.242 7.618-13.909 13.285-23 17a289.106 289.106 0 0 0 0 34c2.501 15.495 11.668 23.662 27.5 24.5 1.833.5 3 1.667 3.5 3.5a256.122 256.122 0 0 1 0 32c-.5 1.833-1.667 3-3.5 3.5-13 .667-26 .667-39 0-28.383-6.049-45.883-23.216-52.5-51.5a1059.732 1059.732 0 0 0-1.5-46c-27.864-11.015-41.197-31.681-40-62a747.465 747.465 0 0 0-23 59 2456.575 2456.575 0 0 0 23.5 64l1 67 15 30a16.242 16.242 0 0 1 0 8c-.5 1.833-1.667 3-3.5 3.5a428.817 428.817 0 0 1-58-1 1113.143 1113.143 0 0 1-17.5-26.5l-1-41-15 39a212.366 212.366 0 0 1-2 28 9.454 9.454 0 0 1-2.5 1.5l-16 .5a86.467 86.467 0 0 1-18-1.5 3575.419 3575.419 0 0 1-25.5-50.5l-.5-5a1493.244 1493.244 0 0 1 17-78.5c-16.33-.5-32.663-.667-49-.5-.167 33.668 0 67.335.5 101l15 23c.929 3.744.429 7.244-1.5 10.5a451.186 451.186 0 0 1-42 1.5c-14.09.15-28.09-.35-42-1.5-1.956-3.595-2.456-7.428-1.5-11.5l6.5-19.5a6281.646 6281.646 0 0 0-16.5-52.5A3424.693 3424.693 0 0 0 81.5 406 729.908 729.908 0 0 0 95 427.5c.928 3.744.428 7.244-1.5 10.5a428.817 428.817 0 0 1-58 1A204.1 204.1 0 0 1 16 411.5c-.667-76.667-.667-153.333 0-230 7.356-47.005 32.523-80.505 75.5-100.5 11.14-4.331 22.474-7.498 34-9.5Zm15 16c29.335-.167 58.669 0 88 .5-14.817 19.447-16.984 40.28-6.5 62.5a84.943 84.943 0 0 0 14.5 16.5 1272.165 1272.165 0 0 1 45 40c4.702 3.851 10.035 6.351 16 7.5a27757.646 27757.646 0 0 0 45.5 123l1 66 9.5 19a140.772 140.772 0 0 1-29 .5 446.332 446.332 0 0 1-11.5-16.5 676.431 676.431 0 0 1-2-51c-.93-2.052-2.43-3.552-4.5-4.5l-42-24c-7.26-5.928-12.093-13.428-14.5-22.5a1864.502 1864.502 0 0 0-20-71l-35-18-7.5 15a1158.902 1158.902 0 0 0 28.5 15 980.03 980.03 0 0 1 11.5 42h-76v16h16c-.167 36.002 0 72.002.5 108l7.5 11.5a323.223 323.223 0 0 1-44-.5c3.38-6.298 4.547-12.965 3.5-20l-31-101a15.83 15.83 0 0 0-3.5-5.5l-38-33c-27.677-26.052-36.51-57.552-26.5-94.5 16.96-50.133 51.793-77.133 104.5-81Zm127 0c32.687-.398 65.354.102 98 1.5 38.868 7.535 64.702 30.035 77.5 67.5a103.422 103.422 0 0 1 4 27c.5 13.329.667 26.663.5 40-8.007.166-16.007 0-24-.5-9.167-1.167-14.333-6.333-15.5-15.5l-1-31c-5.457-13.982-15.624-19.482-30.5-16.5-14.128 5.748-19.795 16.248-17 31.5a162.597 162.597 0 0 1-18-.5 11.333 11.333 0 0 0 1.5-3.5l.5-36a369.879 369.879 0 0 0-1.5-38 9.454 9.454 0 0 0-2.5-1.5c-19.997-.5-39.997-.667-60-.5v16h48c.167 17.003 0 34.003-.5 51-4.06 18.712-14.893 24.212-32.5 16.5l-50-44c-13.81-14.778-15.644-30.945-5.5-48.5 7.45-9.14 16.95-14.14 28.5-15Zm113 89c4.184-.796 7.35.537 9.5 4a338.197 338.197 0 0 1 2 35c3.167 12.5 11 20.333 23.5 23.5l59 1c-6.732 9.702-16.066 14.702-28 15-55.334 7.666-78.834-16.167-70.5-71.5.53-3.085 2.03-5.418 4.5-7Zm-51 31c3.35-.165 6.683.002 10 .5a1018.842 1018.842 0 0 0-13.5 33.5 1190.81 1190.81 0 0 1-10.5-26 97.104 97.104 0 0 0 12-5.5c.881-.708 1.547-1.542 2-2.5Zm-298 47a263.571 263.571 0 0 0 23 24.5L88 308.5a172.483 172.483 0 0 0 6.5 19.5A2601.01 2601.01 0 0 0 64 403.5a16.25 16.25 0 0 0 0 8l7.5 11.5c-9 .667-18 .667-27 0A550.252 550.252 0 0 1 32 404.5c-.5-49.999-.667-99.999-.5-150Zm384 17h32a361.554 361.554 0 0 0 1.5 45c5.27 14.271 15.27 23.271 30 27 .497 2.646.664 5.313.5 8-26.668 3.747-46.501-5.919-59.5-29a86.35 86.35 0 0 1-3-10 345.919 345.919 0 0 1-1.5-41Zm-172 59a65.57 65.57 0 0 0 12 11.5 507.834 507.834 0 0 1 26 15.5 3811.118 3811.118 0 0 0-17.5 46c-.5 6.658-.666 13.325-.5 20a31.116 31.116 0 0 1-11-1 2276.195 2276.195 0 0 1-20-40.5 1414.907 1414.907 0 0 0 11-51.5Z" style="opacity:.959"/><path fill="#63AB45" d="M383.5 127.5c4.797-.379 9.464.121 14 1.5a9.454 9.454 0 0 1 1.5 2.5c.499 3.986.666 7.986.5 12-4.797.379-9.464-.121-14-1.5a9.454 9.454 0 0 1-1.5-2.5 72.367 72.367 0 0 1-.5-12Z" style="opacity:.95"/></svg>